<mxfile host="Electron" modified="2024-02-18T17:56:31.193Z" agent="Mozilla/5.0 (Windows NT 10.0; Win64; x64) AppleWebKit/537.36 (KHTML, like Gecko) draw.io/23.1.5 Chrome/120.0.6099.109 Electron/28.1.0 Safari/537.36" etag="ymo9GSyMNNxVz-Uhaqjg" version="23.1.5" type="device">
  <diagram name="Страница — 1" id="AYA0JLufCpw5K_OOgwr1">
    <mxGraphModel dx="1434" dy="844" grid="1" gridSize="10" guides="1" tooltips="1" connect="1" arrows="1" fold="1" page="1" pageScale="1" pageWidth="827" pageHeight="1169" math="0" shadow="0">
      <root>
        <mxCell id="0" />
        <mxCell id="1" parent="0" />
        <mxCell id="d2R1Y5tbDCQg248qOEIO-1" value="SlaveNode" style="html=1;dropTarget=0;whiteSpace=wrap;" parent="1" vertex="1">
          <mxGeometry x="40" y="290" width="350" height="270" as="geometry" />
        </mxCell>
        <mxCell id="d2R1Y5tbDCQg248qOEIO-2" value="" style="shape=module;jettyWidth=8;jettyHeight=4;" parent="d2R1Y5tbDCQg248qOEIO-1" vertex="1">
          <mxGeometry x="1" width="20" height="20" relative="1" as="geometry">
            <mxPoint x="-27" y="7" as="offset" />
          </mxGeometry>
        </mxCell>
        <mxCell id="d2R1Y5tbDCQg248qOEIO-3" value="URL resolver" style="html=1;dropTarget=0;whiteSpace=wrap;" parent="1" vertex="1">
          <mxGeometry x="70" y="310" width="90" height="90" as="geometry" />
        </mxCell>
        <mxCell id="d2R1Y5tbDCQg248qOEIO-4" value="" style="shape=module;jettyWidth=8;jettyHeight=4;" parent="d2R1Y5tbDCQg248qOEIO-3" vertex="1">
          <mxGeometry x="1" width="20" height="20" relative="1" as="geometry">
            <mxPoint x="-27" y="7" as="offset" />
          </mxGeometry>
        </mxCell>
        <mxCell id="d2R1Y5tbDCQg248qOEIO-5" value="REP &amp;amp; Sitemap Analyzer" style="html=1;dropTarget=0;whiteSpace=wrap;" parent="1" vertex="1">
          <mxGeometry x="70" y="449" width="110" height="90" as="geometry" />
        </mxCell>
        <mxCell id="d2R1Y5tbDCQg248qOEIO-6" value="" style="shape=module;jettyWidth=8;jettyHeight=4;" parent="d2R1Y5tbDCQg248qOEIO-5" vertex="1">
          <mxGeometry x="1" width="20" height="20" relative="1" as="geometry">
            <mxPoint x="-27" y="7" as="offset" />
          </mxGeometry>
        </mxCell>
        <mxCell id="d2R1Y5tbDCQg248qOEIO-11" value="HTMLAnalyzer.dll" style="html=1;dropTarget=0;whiteSpace=wrap;" parent="1" vertex="1">
          <mxGeometry x="125" y="110" width="180" height="90" as="geometry" />
        </mxCell>
        <mxCell id="d2R1Y5tbDCQg248qOEIO-12" value="" style="shape=module;jettyWidth=8;jettyHeight=4;" parent="d2R1Y5tbDCQg248qOEIO-11" vertex="1">
          <mxGeometry x="1" width="20" height="20" relative="1" as="geometry">
            <mxPoint x="-27" y="7" as="offset" />
          </mxGeometry>
        </mxCell>
        <mxCell id="d2R1Y5tbDCQg248qOEIO-13" value="Use" style="endArrow=open;endSize=12;dashed=1;html=1;rounded=0;entryX=0.5;entryY=1;entryDx=0;entryDy=0;exitX=0.5;exitY=0;exitDx=0;exitDy=0;" parent="1" source="d2R1Y5tbDCQg248qOEIO-1" target="d2R1Y5tbDCQg248qOEIO-11" edge="1">
          <mxGeometry width="160" relative="1" as="geometry">
            <mxPoint x="390" y="430" as="sourcePoint" />
            <mxPoint x="550" y="430" as="targetPoint" />
          </mxGeometry>
        </mxCell>
        <mxCell id="d2R1Y5tbDCQg248qOEIO-14" value="MPI.dll" style="html=1;dropTarget=0;whiteSpace=wrap;" parent="1" vertex="1">
          <mxGeometry x="500" y="390" width="180" height="90" as="geometry" />
        </mxCell>
        <mxCell id="d2R1Y5tbDCQg248qOEIO-15" value="" style="shape=module;jettyWidth=8;jettyHeight=4;" parent="d2R1Y5tbDCQg248qOEIO-14" vertex="1">
          <mxGeometry x="1" width="20" height="20" relative="1" as="geometry">
            <mxPoint x="-27" y="7" as="offset" />
          </mxGeometry>
        </mxCell>
        <mxCell id="d2R1Y5tbDCQg248qOEIO-24" value="MasterNode" style="html=1;dropTarget=0;whiteSpace=wrap;" parent="1" vertex="1">
          <mxGeometry x="780" y="280" width="350" height="270" as="geometry" />
        </mxCell>
        <mxCell id="d2R1Y5tbDCQg248qOEIO-25" value="" style="shape=module;jettyWidth=8;jettyHeight=4;" parent="d2R1Y5tbDCQg248qOEIO-24" vertex="1">
          <mxGeometry x="1" width="20" height="20" relative="1" as="geometry">
            <mxPoint x="-27" y="7" as="offset" />
          </mxGeometry>
        </mxCell>
        <mxCell id="d2R1Y5tbDCQg248qOEIO-26" value="Database" style="html=1;dropTarget=0;whiteSpace=wrap;" parent="1" vertex="1">
          <mxGeometry x="500" y="610" width="180" height="90" as="geometry" />
        </mxCell>
        <mxCell id="d2R1Y5tbDCQg248qOEIO-27" value="" style="shape=module;jettyWidth=8;jettyHeight=4;" parent="d2R1Y5tbDCQg248qOEIO-26" vertex="1">
          <mxGeometry x="1" width="20" height="20" relative="1" as="geometry">
            <mxPoint x="-27" y="7" as="offset" />
          </mxGeometry>
        </mxCell>
        <mxCell id="d2R1Y5tbDCQg248qOEIO-30" value="" style="html=1;rounded=0;rotation=-180;" parent="1" vertex="1">
          <mxGeometry x="670" y="430" width="30" height="30" as="geometry" />
        </mxCell>
        <mxCell id="d2R1Y5tbDCQg248qOEIO-31" value="" style="endArrow=none;html=1;rounded=0;align=center;verticalAlign=top;endFill=0;labelBackgroundColor=none;endSize=2;" parent="1" source="d2R1Y5tbDCQg248qOEIO-30" target="d2R1Y5tbDCQg248qOEIO-32" edge="1">
          <mxGeometry relative="1" as="geometry" />
        </mxCell>
        <mxCell id="d2R1Y5tbDCQg248qOEIO-32" value="" style="ellipse;html=1;fontSize=11;align=center;fillColor=none;points=[];aspect=fixed;resizable=0;verticalAlign=bottom;labelPosition=center;verticalLabelPosition=top;flipH=1;" parent="1" vertex="1">
          <mxGeometry x="730" y="441" width="8" height="8" as="geometry" />
        </mxCell>
        <mxCell id="d2R1Y5tbDCQg248qOEIO-33" value="" style="html=1;rounded=0;" parent="1" vertex="1">
          <mxGeometry x="370" y="430" width="30" height="30" as="geometry" />
        </mxCell>
        <mxCell id="d2R1Y5tbDCQg248qOEIO-34" value="" style="endArrow=none;html=1;rounded=0;align=center;verticalAlign=top;endFill=0;labelBackgroundColor=none;endSize=2;" parent="1" source="d2R1Y5tbDCQg248qOEIO-33" target="d2R1Y5tbDCQg248qOEIO-35" edge="1">
          <mxGeometry relative="1" as="geometry" />
        </mxCell>
        <mxCell id="d2R1Y5tbDCQg248qOEIO-35" value="" style="shape=requiredInterface;html=1;fontSize=11;align=center;fillColor=none;points=[];aspect=fixed;resizable=0;verticalAlign=bottom;labelPosition=center;verticalLabelPosition=top;flipH=1;" parent="1" vertex="1">
          <mxGeometry x="442" y="439" width="5" height="10" as="geometry" />
        </mxCell>
        <mxCell id="d2R1Y5tbDCQg248qOEIO-37" value="" style="html=1;rounded=0;" parent="1" vertex="1">
          <mxGeometry x="770" y="430" width="30" height="30" as="geometry" />
        </mxCell>
        <mxCell id="d2R1Y5tbDCQg248qOEIO-38" value="" style="endArrow=none;html=1;rounded=0;align=center;verticalAlign=top;endFill=0;labelBackgroundColor=none;endSize=2;entryX=1.133;entryY=0.433;entryDx=0;entryDy=0;entryPerimeter=0;" parent="1" source="d2R1Y5tbDCQg248qOEIO-37" target="d2R1Y5tbDCQg248qOEIO-39" edge="1">
          <mxGeometry relative="1" as="geometry" />
        </mxCell>
        <mxCell id="d2R1Y5tbDCQg248qOEIO-39" value="" style="shape=requiredInterface;html=1;fontSize=11;align=center;fillColor=none;points=[];aspect=fixed;resizable=0;verticalAlign=bottom;labelPosition=center;verticalLabelPosition=top;flipH=1;rotation=-180;" parent="1" vertex="1">
          <mxGeometry x="736" y="440" width="5" height="10" as="geometry" />
        </mxCell>
        <mxCell id="d2R1Y5tbDCQg248qOEIO-43" value="" style="html=1;rounded=0;" parent="1" vertex="1">
          <mxGeometry x="488" y="429" width="30" height="30" as="geometry" />
        </mxCell>
        <mxCell id="d2R1Y5tbDCQg248qOEIO-44" value="" style="endArrow=none;html=1;rounded=0;align=center;verticalAlign=top;endFill=0;labelBackgroundColor=none;endSize=2;" parent="1" source="d2R1Y5tbDCQg248qOEIO-43" target="d2R1Y5tbDCQg248qOEIO-45" edge="1">
          <mxGeometry relative="1" as="geometry" />
        </mxCell>
        <mxCell id="d2R1Y5tbDCQg248qOEIO-45" value="" style="ellipse;html=1;fontSize=11;align=center;fillColor=none;points=[];aspect=fixed;resizable=0;verticalAlign=bottom;labelPosition=center;verticalLabelPosition=top;flipH=1;" parent="1" vertex="1">
          <mxGeometry x="445" y="440" width="8" height="8" as="geometry" />
        </mxCell>
        <mxCell id="d2R1Y5tbDCQg248qOEIO-47" value="" style="html=1;rounded=0;" parent="1" vertex="1">
          <mxGeometry x="488" y="640" width="30" height="30" as="geometry" />
        </mxCell>
        <mxCell id="d2R1Y5tbDCQg248qOEIO-48" value="" style="endArrow=none;html=1;rounded=0;align=center;verticalAlign=top;endFill=0;labelBackgroundColor=none;endSize=2;" parent="1" source="d2R1Y5tbDCQg248qOEIO-47" target="d2R1Y5tbDCQg248qOEIO-49" edge="1">
          <mxGeometry relative="1" as="geometry" />
        </mxCell>
        <mxCell id="d2R1Y5tbDCQg248qOEIO-49" value="" style="ellipse;html=1;fontSize=11;align=center;fillColor=none;points=[];aspect=fixed;resizable=0;verticalAlign=bottom;labelPosition=center;verticalLabelPosition=top;flipH=1;" parent="1" vertex="1">
          <mxGeometry x="406" y="650" width="8" height="8" as="geometry" />
        </mxCell>
        <mxCell id="d2R1Y5tbDCQg248qOEIO-50" value="" style="html=1;rounded=0;" parent="1" vertex="1">
          <mxGeometry x="670" y="640" width="30" height="30" as="geometry" />
        </mxCell>
        <mxCell id="d2R1Y5tbDCQg248qOEIO-51" value="" style="endArrow=none;html=1;rounded=0;align=center;verticalAlign=top;endFill=0;labelBackgroundColor=none;endSize=2;" parent="1" source="d2R1Y5tbDCQg248qOEIO-50" target="d2R1Y5tbDCQg248qOEIO-52" edge="1">
          <mxGeometry relative="1" as="geometry" />
        </mxCell>
        <mxCell id="d2R1Y5tbDCQg248qOEIO-52" value="" style="ellipse;html=1;fontSize=11;align=center;fillColor=none;points=[];aspect=fixed;resizable=0;verticalAlign=bottom;labelPosition=center;verticalLabelPosition=top;flipH=1;rotation=15;" parent="1" vertex="1">
          <mxGeometry x="750" y="651" width="8" height="8" as="geometry" />
        </mxCell>
        <mxCell id="d2R1Y5tbDCQg248qOEIO-53" value="" style="html=1;rounded=0;" parent="1" vertex="1">
          <mxGeometry x="340" y="540" width="30" height="30" as="geometry" />
        </mxCell>
        <mxCell id="d2R1Y5tbDCQg248qOEIO-54" value="" style="endArrow=none;html=1;rounded=0;align=center;verticalAlign=top;endFill=0;labelBackgroundColor=none;endSize=2;" parent="1" source="d2R1Y5tbDCQg248qOEIO-53" target="d2R1Y5tbDCQg248qOEIO-55" edge="1">
          <mxGeometry relative="1" as="geometry" />
        </mxCell>
        <mxCell id="d2R1Y5tbDCQg248qOEIO-55" value="" style="shape=requiredInterface;html=1;fontSize=11;align=center;fillColor=none;points=[];aspect=fixed;resizable=0;verticalAlign=bottom;labelPosition=center;verticalLabelPosition=top;flipH=1;rotation=12;" parent="1" vertex="1">
          <mxGeometry x="403" y="648" width="5" height="10" as="geometry" />
        </mxCell>
        <mxCell id="d2R1Y5tbDCQg248qOEIO-57" value="" style="html=1;rounded=0;" parent="1" vertex="1">
          <mxGeometry x="797" y="530" width="30" height="30" as="geometry" />
        </mxCell>
        <mxCell id="d2R1Y5tbDCQg248qOEIO-58" value="" style="endArrow=none;html=1;rounded=0;align=center;verticalAlign=top;endFill=0;labelBackgroundColor=none;endSize=2;" parent="1" source="d2R1Y5tbDCQg248qOEIO-57" target="d2R1Y5tbDCQg248qOEIO-59" edge="1">
          <mxGeometry relative="1" as="geometry" />
        </mxCell>
        <mxCell id="d2R1Y5tbDCQg248qOEIO-59" value="" style="shape=requiredInterface;html=1;fontSize=11;align=center;fillColor=none;points=[];aspect=fixed;resizable=0;verticalAlign=bottom;labelPosition=center;verticalLabelPosition=top;flipH=1;rotation=156;" parent="1" vertex="1">
          <mxGeometry x="756" y="648" width="5" height="10" as="geometry" />
        </mxCell>
        <mxCell id="d2R1Y5tbDCQg248qOEIO-63" value="" style="html=1;rounded=0;" parent="1" vertex="1">
          <mxGeometry x="1120" y="409" width="30" height="30" as="geometry" />
        </mxCell>
        <mxCell id="d2R1Y5tbDCQg248qOEIO-64" value="" style="endArrow=none;html=1;rounded=0;align=center;verticalAlign=top;endFill=0;labelBackgroundColor=none;endSize=2;" parent="1" source="d2R1Y5tbDCQg248qOEIO-63" target="d2R1Y5tbDCQg248qOEIO-65" edge="1">
          <mxGeometry relative="1" as="geometry" />
        </mxCell>
        <mxCell id="d2R1Y5tbDCQg248qOEIO-65" value="" style="shape=requiredInterface;html=1;fontSize=11;align=center;fillColor=none;points=[];aspect=fixed;resizable=0;verticalAlign=bottom;labelPosition=center;verticalLabelPosition=top;flipH=1;rotation=0;" parent="1" vertex="1">
          <mxGeometry x="1190" y="420" width="5" height="10" as="geometry" />
        </mxCell>
        <mxCell id="d2R1Y5tbDCQg248qOEIO-69" value="AMQP" style="text;html=1;strokeColor=none;fillColor=none;align=center;verticalAlign=middle;whiteSpace=wrap;rounded=0;" parent="1" vertex="1">
          <mxGeometry x="202.5" y="591" width="60" height="30" as="geometry" />
        </mxCell>
        <mxCell id="d2R1Y5tbDCQg248qOEIO-70" value="TCP" style="text;html=1;strokeColor=none;fillColor=none;align=center;verticalAlign=middle;whiteSpace=wrap;rounded=0;" parent="1" vertex="1">
          <mxGeometry x="393" y="621" width="60" height="30" as="geometry" />
        </mxCell>
        <mxCell id="d2R1Y5tbDCQg248qOEIO-71" value="TCP" style="text;html=1;strokeColor=none;fillColor=none;align=center;verticalAlign=middle;whiteSpace=wrap;rounded=0;" parent="1" vertex="1">
          <mxGeometry x="710" y="621" width="60" height="30" as="geometry" />
        </mxCell>
        <mxCell id="l_PvKndj1_FhT0LyYlCL-2" value="" style="html=1;rounded=0;" parent="1" vertex="1">
          <mxGeometry x="940" y="270" width="30" height="30" as="geometry" />
        </mxCell>
        <mxCell id="l_PvKndj1_FhT0LyYlCL-3" value="" style="endArrow=none;html=1;rounded=0;align=center;verticalAlign=top;endFill=0;labelBackgroundColor=none;endSize=2;" parent="1" source="l_PvKndj1_FhT0LyYlCL-2" target="l_PvKndj1_FhT0LyYlCL-4" edge="1">
          <mxGeometry relative="1" as="geometry" />
        </mxCell>
        <mxCell id="l_PvKndj1_FhT0LyYlCL-4" value="" style="ellipse;html=1;fontSize=11;align=center;fillColor=none;points=[];aspect=fixed;resizable=0;verticalAlign=bottom;labelPosition=center;verticalLabelPosition=top;flipH=1;" parent="1" vertex="1">
          <mxGeometry x="951" y="220" width="8" height="8" as="geometry" />
        </mxCell>
        <mxCell id="l_PvKndj1_FhT0LyYlCL-5" value="REST API" style="text;html=1;strokeColor=none;fillColor=none;align=center;verticalAlign=middle;whiteSpace=wrap;rounded=0;" parent="1" vertex="1">
          <mxGeometry x="970" y="209" width="60" height="30" as="geometry" />
        </mxCell>
        <mxCell id="zD3e318g2M9qMD6OasvV-1" value="Local Database" style="html=1;dropTarget=0;whiteSpace=wrap;" parent="1" vertex="1">
          <mxGeometry x="220" y="310" width="90" height="90" as="geometry" />
        </mxCell>
        <mxCell id="zD3e318g2M9qMD6OasvV-2" value="" style="shape=module;jettyWidth=8;jettyHeight=4;" parent="zD3e318g2M9qMD6OasvV-1" vertex="1">
          <mxGeometry x="1" width="20" height="20" relative="1" as="geometry">
            <mxPoint x="-27" y="7" as="offset" />
          </mxGeometry>
        </mxCell>
        <mxCell id="zD3e318g2M9qMD6OasvV-3" value="URL validator" style="html=1;dropTarget=0;whiteSpace=wrap;" parent="1" vertex="1">
          <mxGeometry x="220" y="450" width="110" height="90" as="geometry" />
        </mxCell>
        <mxCell id="zD3e318g2M9qMD6OasvV-4" value="" style="shape=module;jettyWidth=8;jettyHeight=4;" parent="zD3e318g2M9qMD6OasvV-3" vertex="1">
          <mxGeometry x="1" width="20" height="20" relative="1" as="geometry">
            <mxPoint x="-27" y="7" as="offset" />
          </mxGeometry>
        </mxCell>
        <mxCell id="zD3e318g2M9qMD6OasvV-9" value="" style="html=1;rounded=0;rotation=-180;" parent="1" vertex="1">
          <mxGeometry x="180" y="547" width="40" height="38" as="geometry" />
        </mxCell>
        <mxCell id="zD3e318g2M9qMD6OasvV-10" value="" style="endArrow=none;html=1;rounded=0;align=center;verticalAlign=top;endFill=0;labelBackgroundColor=none;endSize=2;" parent="1" source="zD3e318g2M9qMD6OasvV-9" target="zD3e318g2M9qMD6OasvV-11" edge="1">
          <mxGeometry relative="1" as="geometry" />
        </mxCell>
        <mxCell id="zD3e318g2M9qMD6OasvV-11" value="" style="shape=requiredInterface;html=1;fontSize=11;align=center;fillColor=none;points=[];aspect=fixed;resizable=0;verticalAlign=bottom;labelPosition=center;verticalLabelPosition=top;flipH=1;rotation=90;" parent="1" vertex="1">
          <mxGeometry x="197.5" y="611" width="5" height="10" as="geometry" />
        </mxCell>
        <mxCell id="zD3e318g2M9qMD6OasvV-13" value="AMQP" style="text;html=1;strokeColor=none;fillColor=none;align=center;verticalAlign=middle;whiteSpace=wrap;rounded=0;" parent="1" vertex="1">
          <mxGeometry x="1150" y="430" width="60" height="30" as="geometry" />
        </mxCell>
      </root>
    </mxGraphModel>
  </diagram>
</mxfile>
